# AST/ASF file generated using VICON BodyLanguage
# -----------------------------------------------
:version 1.10
:name VICON
:units
  mass 1.0
  length 0.45
  angle deg
:documentation
   .ast/.asf automatically generated from VICON data using
   VICON BodyBuilder and BodyLanguage model FoxedUp or BRILLIANT.MOD
:root
   order TX TY TZ RX RY RZ
   axis XYZ
   position 0 0 0  
   orientation 0 0 0 
:bonedata
  begin
     id 1 
     name lhipjoint
     direction 0.611804 -0.747784 0.257906 
     length 2.29243 
     axis 0 0 0  XYZ
  end
  begin
     id 2 
     name lfemur
     direction 0.34202 -0.939693 0  
     length 7.31159  
     axis 0 0 20  XYZ
    dof rx ry rz
    limits (-160.0 20.0)
           (-70.0 70.0)
           (-60.0 70.0)
  end
  begin
     id 3 
     name ltibia
     direction 0.34202 -0.939693 0   
     length 7.33391   
     axis 0 0 20   XYZ
    dof rx
    limits (-10.0 170.0)
  end
  begin
     id 4 
     name lfoot
     direction 0.122263 -0.335914 0.933924   
     length 1.76083   
     axis -90 7.62852e-016 20   XYZ
    dof rx rz
    limits (-45.0 90.0)
           (-70.0 20.0)
  end
  begin
     id 5 
     name ltoes
     direction 1.53533e-011 -4.2177e-011 1   
     length 0.879206   
     axis -90 7.62852e-016 20   XYZ
    dof rx
    limits (-90.0 20.0)
  end
  begin
     id 6 
     name rhipjoint
     direction -0.646469 -0.721248 0.248754   
     length 2.37677  
     axis 0 0 0  XYZ 
  end
  begin
     id 7 
     name rfemur
     direction -0.34202 -0.939693 0   
     length 7.18623   
     axis 0 0 -20   XYZ
    dof rx ry rz
    limits (-160.0 20.0)
           (-70.0 70.0)
           (-70.0 60.0)
  end
  begin
     id 8 
     name rtibia
     direction -0.34202 -0.939693 0   
     length 7.36567   
     axis 0 0 -20   XYZ
    dof rx
    limits (-10.0 170.0)
 end
 begin
     id 9 
     name rfoot
     direction -0.126681 -0.348054 0.928876   
     length 1.71902  
     axis -90 -7.62852e-016 -20   XYZ
    dof rx rz
    limits (-45.0 90.0)
           (-20.0 70.0)
  end
  begin
     id 10 
     name rtoes
     direction -1.53551e-011 -4.21898e-011 1   
     length 0.857792   
     axis -90 -7.62852e-016 -20   XYZ
    dof rx
    limits (-90.0 20.0)
  end
  begin
     id 11 
     name lowerback
     direction 0.0106509 0.999778 0.0181844   
     length 2.07668   
     axis 0 0 0   XYZ
    dof rx ry rz
    limits (-20.0 45.0)
           (-30.0 30.0)
           (-30.0 30.0)
  end
  begin
     id 12 
     name upperback
     direction -0.00456018 0.999989 -0.000590935   
     length 2.08011   
     axis 0 0 0   XYZ
    dof rx ry rz
    limits (-20.0 45.0)
           (-30.0 30.0)
           (-30.0 30.0)
  end
  begin
     id 13 
     name thorax
     direction -0.00910382 0.999916 -0.00923765   
     length 2.07397   
     axis 0 0 0   XYZ
    dof rx ry rz
    limits (-20.0 45.0)
           (-30.0 30.0)
           (-30.0 30.0)
  end
  begin
     id 14 
     name lowerneck
     direction 0.00171967 0.99778 0.0665733   
     length 1.67556   
     axis 0 0 0   XYZ
    dof rx ry rz
    limits (-20.0 45.0)
           (-30.0 30.0)
           (-30.0 30.0)
  end
  begin
     id 15 
     name upperneck
     direction -0.0143166 0.991302 -0.130828   
     length 1.68462   
     axis 0 0 0   XYZ
    dof rx ry rz
    limits (-20.0 45.0)
           (-30.0 30.0)
           (-30.0 30.0)
  end
  begin
     id 16
     name head
     direction -0.00606378 0.998665 -0.0512995  
     length 1.69269  
     axis 0 0 0   XYZ
    dof rx ry rz
    limits (-20.0 45.0)
           (-30.0 30.0)
           (-30.0 30.0)
  end
  begin
     id 17 
     name lclavicle
     direction 0.9638 0.179341 0.197297  
     length 4.12888  
     axis 0 0 0   XYZ
    dof ry rz
    limits (-20.0 10.0)
           (0.0 20.0)
  end
  begin
     id 18 
     name lhumerus
     direction 1 -4.48972e-011 -2.47351e-027   
     length 5.01834   
     axis -180 -30 -90   XYZ
    dof rx ry rz
    limits (-60.0 90.0)
           (-90.0 90.0)
           (-90.0 90.0)
  end
  begin
     id 19
     name lradius
     direction 1 -4.48965e-011 1.51591e-026   
     length 3.4869   
     axis -180 -30 -90   XYZ
    dof rx
    limits (-10.0 170.0)
  end
  begin
     id 20
     name lwrist
     direction 1 -4.48957e-011 2.70032e-026   
     length 1.74345   
     axis -1.81515e-014 90 90   XYZ
    dof ry
    limits (-180.0 0.0)
 end
  begin
     id 21 
     name lhand
     direction 1 -4.48951e-011 5.40064e-026   
     length 0.76799   
     axis -3.44607e-014 90 90   XYZ
    dof rx rz
    limits (-90.0 90.0)
           (-45.0 45.0)
  end
  begin
     id 22 
     name lfingers
     direction 1 -4.48971e-011 1.08013e-025   
     length 0.619174   
     axis -6.89214e-014 90 90   XYZ
    dof rx
    limits (0.0 90.0)
  end
  begin
     id 23
     name lthumb
     direction 0.707107 -6.34931e-011 0.707107   
     length 0.889013   
     axis -90 45 2.85299e-015   XYZ
    dof rx rz
    limits (-45.0 45.0)
           (-45.0 45.0)
  end
  begin
     id 24 
     name rclavicle
     direction -0.961409 0.252588 0.109054   
     length 4.04305  
     axis 0 0 0   XYZ 
    dof ry rz
    limits (-10.0 20.0)
           (-20.0 0.0)
  end
  begin
     id 25 
     name rhumerus
     direction -1 -4.4897e-011 1.33872e-017  
     length 4.70164   
     axis -180 30 90   XYZ
    dof rx ry rz
    limits (-90.0 60.0)
           (-90.0 90.0)
           (-90.0 90.0)
  end
  begin
     id 26 
     name rradius
     direction -1 -4.48954e-011 1.83844e-026   
     length 3.49911   
     axis -180 30 90   XYZ
    dof rx
    limits (-10.0 170.0)
  end
  begin
     id 27 
     name rwrist
     direction -1 -4.49008e-011 2.70032e-026   
     length 1.74955   
     axis -1.81515e-014 -90 -90   XYZ
    dof ry
    limits (-180.0 0.0)
  end
  begin
     id 28
     name rhand
     direction -1 -4.48916e-011 5.40064e-026   
     length 0.739335   
     axis -3.44607e-014 -90 -90   XYZ
    dof rx rz
    limits (-90.0 90.0)
           (-45.0 45.0)
  end
  begin
     id 29
     name rfingers
     direction -1 -4.48987e-011 1.08013e-025   
     length 0.596071   
     axis -6.89214e-014 -90 -90   XYZ
    dof rx
    limits (0.0 90.0)
  end
  begin
     id 30
     name rthumb
     direction -0.707107 -6.34935e-011 0.707107   
     length 0.855843   
     axis -90 -45 -2.85299e-015   XYZ
    dof rx rz
    limits (-45.0 45.0)
           (-45.0 45.0)
  end
:hierarchy
  begin
    root lhipjoint rhipjoint lowerback
    lhipjoint lfemur
    lfemur ltibia
    ltibia lfoot
    lfoot ltoes
    rhipjoint rfemur
    rfemur rtibia
    rtibia rfoot
    rfoot rtoes
    lowerback upperback
    upperback thorax
    thorax lowerneck lclavicle rclavicle
    lowerneck upperneck
    upperneck head
    lclavicle lhumerus
    lhumerus lradius
    lradius lwrist
    lwrist lhand lthumb
    lhand lfingers
    rclavicle rhumerus
    rhumerus rradius
    rradius rwrist
    rwrist rhand rthumb
    rhand rfingers
  end

#!OML:ASF I:\salsa\salsa 7_09\Patient 1\Session 1\dancermale.ASF
:FULLY-SPECIFIED
:DEGREES
1036
root -1.70537 17.054 -1.56952 1088.67 6.76117 366.155
lowerback 8.27829 -9.92238 -5.5885
upperback -3.28723 -13.816 1.53215
thorax -6.35495 -6.5394 6.32662
lowerneck -13.1534 -6.14468 -16.7107
upperneck 22.0085 -7.87529 12.5875
head 10.3793 -3.75537 6.28416
rclavicle 8.66701e-014 -1.2921e-014
rhumerus -37.0542 15.7429 -71.0384
rradius 96.7611
rwrist -21.2381
rhand -73.6968 91.9178
rfingers 7.12502
rthumb -45.0627 -244.607
lclavicle 8.66701e-014 -1.2921e-014
lhumerus -3.7535 -9.33773 97.5945
lradius 43.2313
lwrist 53.1392
lhand -36.1612 42.1618
lfingers 7.12502
lthumb -9.2654 -648.062
rfemur -27.8172 -8.47439 6.22412
rtibia 51.0718
rfoot -7.94339 -15.621
rtoes -31.9274
lfemur -24.605 -7.47217 -29.8755
ltibia 39.5967
lfoot -23.8815 6.28593
ltoes -32.1542
1037
root -1.74474 17.02 -1.70139 1088.65 7.62355 366.52
lowerback 8.43851 -10.0172 -6.38783
upperback -3.32 -14.0621 1.27645
thorax -6.32998 -6.63092 6.51833
lowerneck -13.8557 -5.73779 -16.7045
upperneck 22.9602 -7.17542 12.2834
head 10.7284 -3.45656 6.30122
rclavicle 5.96354e-014 -1.92821e-014
rhumerus -39.4034 17.7157 -73.4347
rradius 98.6794
rwrist -20.216
rhand -73.6191 102.468
rfingers 7.12502
rthumb -44.9903 -234.028
lclavicle 5.96354e-014 -1.92821e-014
lhumerus -1.60587 -7.24317 97.8092
lradius 41.0433
lwrist 51.2488
lhand -36.2482 42.061
lfingers 7.12502
lthumb -9.34931 -648.166
rfemur -28.299 -7.33654 6.15324
rtibia 55.6271
rfoot -7.55674 -13.8101
rtoes -37.4245
lfemur -25.3278 -8.33145 -30.109
ltibia 40.2485
lfoot -23.7464 6.20233
ltoes -33.1393
1038
root -1.78476 16.9918 -1.83143 1088.47 8.70248 366.826
lowerback 8.80756 -10.1202 -6.90746
upperback -3.34768 -14.3073 0.992555
thorax -6.48666 -6.72031 6.58752
lowerneck -14.483 -5.30777 -16.6319
upperneck 23.8933 -6.44599 11.9282
head 11.0549 -3.15229 6.29572
rclavicle 2.44008e-014 -2.38542e-015
rhumerus -42.2053 19.4927 -76.0004
rradius 100.31
rwrist -18.941
rhand -73.1899 113.446
rfingers 7.12502
rthumb -44.5907 -222.895
lclavicle 2.44008e-014 -2.38542e-015
lhumerus 0.0588999 -5.09499 98.1609
lradius 39.2767
lwrist 48.8681
lhand -35.5834 41.338
lfingers 7.12502
lthumb -8.70779 -648.862
rfemur -28.0472 -6.20785 6.02114
rtibia 59.4984
rfoot -7.05456 -11.6339
rtoes -41.3088
lfemur -25.6745 -9.1349 -30.3021
ltibia 40.6277
lfoot -23.646 5.89099
ltoes -33.9057
1039
root -1.83109 16.9692 -1.96097 1088.2 10.0401 367.028
lowerback 9.26708 -10.2687 -7.07994
upperback -3.37623 -14.5872 0.664226
thorax -6.78321 -6.8313 6.46658
lowerneck -15.0268 -4.87084 -16.6356
upperneck 24.7676 -5.70508 11.6461
head 11.3548 -2.84938 6.33535
rclavicle 7.07798e-014 1.86361e-014
rhumerus -45.2722 21.0359 -78.8401
rradius 101.498
rwrist -17.3537
rhand -72.3277 123.996
rfingers 7.12502
rthumb -43.7868 -212.042
lclavicle 7.07798e-014 1.86361e-014
lhumerus 1.22917 -3.0001 98.4937
lradius 37.9549
lwrist 46.0812
lhand -34.4345 40.4021
lfingers 7.12502
lthumb -7.59893 -649.754
rfemur -27.1748 -5.10511 5.97321
rtibia 62.5049
rfoot -6.52072 -9.4504
rtoes -43.662
lfemur -25.8242 -10.1005 -30.3532
ltibia 40.8386
lfoot -23.4984 5.46343
ltoes -34.7605
1040
root -1.88228 16.9499 -2.08885 1088.04 11.4301 367.209
lowerback 9.47122 -10.3583 -7.09495
upperback -3.35069 -14.7508 0.290159
thorax -6.94526 -6.90464 6.1537
lowerneck -15.6575 -4.52718 -16.5602
upperneck 25.7219 -5.10603 11.3834
head 11.7333 -2.60643 6.35531
rclavicle -1.27787e-013 -1.44119e-015
rhumerus -48.6833 22.4995 -82.3143
rradius 102.759
rwrist -16.9628
rhand -71.2953 142.676
rfingers 7.12502
rthumb -42.8221 -193.016
lclavicle -1.27787e-013 -1.44119e-015
lhumerus 2.15302 -1.3455 98.8173
lradius 36.9745
lwrist 43.5385
lhand -33.5934 39.1541
lfingers 7.12502
lthumb -6.78706 -650.975
rfemur -26.0275 -4.07543 5.8615
rtibia 64.7305
rfoot -5.84279 -7.14257
rtoes -45.2691
lfemur -26.0927 -11.17 -30.3578
ltibia 40.9996
lfoot -23.2475 5.04625
ltoes -35.6543
1041
root -1.93751 16.9372 -2.21372 1087.93 12.8432 367.372
lowerback 9.4796 -10.3841 -6.97594
upperback -3.26453 -14.7959 -0.126357
thorax -6.99233 -6.93739 5.67475
lowerneck -16.3632 -4.26517 -16.402
upperneck 26.7492 -4.62991 11.1153
head 12.1852 -2.41686 6.34852
rclavicle 5.09137e-014 -8.64713e-015
rhumerus -52.3248 23.7153 -86.3059
rradius 103.876
rwrist -17.1493
rhand -68.6693 162.762
rfingers 7.12502
rthumb -40.3589 -172.121
lclavicle 5.09137e-014 -8.64713e-015
lhumerus 2.86086 0.149846 99.1117
lradius 36.2583
lwrist 41.667
lhand -32.9952 38.2051
lfingers 7.12502
lthumb -6.20956 -651.906
rfemur -24.5419 -3.16199 5.75825
rtibia 66.1316
rfoot -5.1783 -5.23868
rtoes -46.4819
lfemur -26.3965 -12.2646 -30.3216
ltibia 41.0922
lfoot -22.9992 4.5286
ltoes -36.1673
1042
root -1.99646 16.9289 -2.33819 1087.83 14.3035 367.424
lowerback 9.36999 -10.3191 -6.62794
upperback -3.12856 -14.68 -0.560234
thorax -6.99812 -6.90674 5.02408
lowerneck -16.8694 -4.06674 -16.0415
upperneck 27.6002 -4.29842 10.7594
head 12.5542 -2.2849 6.24124
rclavicle 1.46355e-014 1.70955e-014
rhumerus -55.4904 23.9243 -89.6314
rradius 104.307
rwrist -14.3984
rhand -65.5759 166.081
rfingers 7.12502
rthumb -37.4422 -167.97
lclavicle 1.46355e-014 1.70955e-014
lhumerus 3.26065 0.951807 99.2146
lradius 35.9011
lwrist 40.6919
lhand -32.4201 37.697
lfingers 7.12502
lthumb -5.65435 -652.398
rfemur -22.7154 -2.26936 5.78629
rtibia 66.7478
rfoot -4.82238 -3.02115
rtoes -46.3106
lfemur -26.6327 -13.3299 -30.1555
ltibia 41.0034
lfoot -22.7494 3.87868
ltoes -36.413
1043
root -2.06213 16.9269 -2.46507 1087.61 15.6616 367.42
lowerback 9.31213 -10.1043 -6.19058
upperback -2.9111 -14.3554 -1.03162
thorax -6.99397 -6.78011 4.27448
lowerneck -17.2609 -3.93699 -15.4881
upperneck 28.3075 -4.1102 10.3204
head 12.867 -2.20543 6.0355
rclavicle 6.98231e-015 -1.27222e-014
rhumerus -58.1342 23.4127 -92.2388
rradius 104.289
rwrist -9.37281
rhand -62.7987 161.646
rfingers 7.12502
rthumb -34.812 -171.754
lclavicle 6.98231e-015 -1.27222e-014
lhumerus 3.37666 0.857489 99.0556
lradius 35.9013
lwrist 40.4839
lhand -32.742 36.437
lfingers 7.12502
lthumb -5.96511 -653.667
rfemur -20.5226 -1.33173 5.95174
rtibia 66.5326
rfoot -4.75065 -0.851829
rtoes -47.7521
lfemur -26.6019 -14.1861 -29.9463
ltibia 40.5951
lfoot -22.3701 2.93094
ltoes -36.3433
1044
root -2.13171 16.9294 -2.59589 1087.72 17.2731 367.486
lowerback 9.03669 -10.0112 -5.53401
upperback -2.87388 -14.1668 -1.49973
thorax -7.09214 -6.72398 3.4126
lowerneck -17.5172 -3.77683 -15.074
upperneck 29.0193 -3.91027 10.0545
head 13.1653 -2.11794 5.927
rclavicle 2.43263e-014 -1.19271e-014
rhumerus -60.7911 22.9595 -94.86
rradius 103.98
rwrist -4.07766
rhand -59.7978 157.91
rfingers 7.12502
rthumb -31.9593 -174.876
lclavicle 2.43263e-014 -1.19271e-014
lhumerus 3.07585 0.617857 98.5887
lradius 36.2024
lwrist 40.5669
lhand -31.5673 34.6407
lfingers 7.12502
lthumb -4.83095 -655.434
rfemur -18.2989 -0.674619 6.14989
rtibia 65.4465
rfoot -4.56469 1.45082
rtoes -48.9317
lfemur -26.8363 -15.1954 -29.7119
ltibia 40.043
lfoot -21.9071 1.41094
ltoes -35.4344
1045
root -2.20552 16.936 -2.72379 1088.08 18.985 367.729
lowerback 8.55051 -9.92365 -4.81844
upperback -2.93468 -13.9846 -2.07417
thorax -7.21192 -6.6778 2.38673
lowerneck -17.5514 -3.58773 -14.6208
upperneck 29.6633 -3.74519 9.89259
head 13.3993 -2.03011 5.84422
rclavicle -2.26118e-015 1.86858e-014
rhumerus -62.9645 21.8317 -97.4447
rradius 102.997
rwrist 1.96782
rhand -56.6777 154.028
rfingers 7.12502
rthumb -28.9837 -178.205
lclavicle -2.26118e-015 1.86858e-014
lhumerus 2.36566 -0.324504 97.7124
lradius 36.8825
lwrist 40.7348
lhand -31.5184 32.9222
lfingers 7.12502
lthumb -4.7837 -657.152
rfemur -15.8961 -0.339057 6.32914
rtibia 63.4553
rfoot -3.86421 3.38491
rtoes -51.0931
lfemur -27.1002 -16.3234 -29.6424
ltibia 39.2044
lfoot -21.3093 -0.101153
ltoes -34.5439
1046
root -2.29372 16.95 -2.85926 1088.6 20.9694 367.916
lowerback 8.14935 -9.83681 -4.02258
upperback -3.09667 -13.8121 -2.61174
thorax -7.4914 -6.63474 1.38651
lowerneck -17.491 -3.47272 -14.1332
upperneck 30.3497 -3.76593 9.88082
head 13.6668 -2.00203 5.78987
rclavicle 8.36883e-014 7.55382e-015
rhumerus -64.9494 20.113 -99.9923
rradius 101.521
rwrist 6.63021
rhand -54.5592 152.845
rfingers 7.12502
rthumb -26.9585 -179.058
lclavicle 8.36883e-014 7.55382e-015
lhumerus 1.37655 -2.00337 96.5442
lradius 37.9908
lwrist 40.9924
lhand -32.5121 31.4225
lfingers 7.12502
lthumb -5.74316 -658.675
rfemur -13.4827 -0.3723 6.82037
rtibia 60.7012
rfoot -3.57792 4.69955
rtoes -56.2352
lfemur -27.5956 -17.5339 -29.4068
ltibia 38.3163
lfoot -20.6782 -1.55289
ltoes -34.1302
